# xmcd CD database file
#
# Track frame offsets:
#	150
#	20307
#	33885
#	46067
#	59012
#	74235
#	97182
#	112420
#	130305
#	141130
#	157047
#	177565
#	202422
#	219752
#	237117
#	256767
#
# Disc length: 3749 seconds
#
# Revision: 0
# Processed by: cddbd v1.5.1PL2 Copyright (c) Steve Scherf et al.
# Submitted via: CDex 1.51
#
DISCID=f80ea310
DTITLE=Sarah Vaughan - Ultimate Sarah Vaughan
DYEAR=1997
DGENRE=Jazz
TTITLE0=The Sweetest Sounds
TTITLE1=Misty
TTITLE2=Shulie A Bop
TTITLE3=Summertime
TTITLE4=Corcovado (Quiet Nights Of Quiet Stars)   
TTITLE5=I'll Be Seeing You
TTITLE6=Just One Of Those Things
TTITLE7=Smoke Gets In Your Eyes
TTITLE8=Broken-Hearted Melody
TTITLE9=Poor Butterfly
TTITLE10=Doodlin'
TTITLE11=Detour Ahead
TTITLE12=Little Girl Blue
TTITLE13=Dreamsville
TTITLE14=My Man's Gone Now
TTITLE15=No Count Blue
EXTD=YEAR: 1997
EXTT0=
EXTT1=
EXTT2=
EXTT3=
EXTT4=
EXTT5=
EXTT6=
EXTT7=
EXTT8=
EXTT9=
EXTT10=
EXTT11=
EXTT12=
EXTT13=
EXTT14=
EXTT15=
PLAYORDER=
